<svg id="SvgjsSvg1001" width="288" height="288" xmlns="http://www.w3.org/2000/svg" version="1.1" xmlns:xlink="http://www.w3.org/1999/xlink" xmlns:svgjs="http://svgjs.com/svgjs"><defs id="SvgjsDefs1002"></defs><g id="SvgjsG1008" transform="matrix(1,0,0,1,0,0)"><svg xmlns="http://www.w3.org/2000/svg" xmlns:xlink="http://www.w3.org/1999/xlink" width="288" height="288" viewBox="0 0 700 700"><defs><symbol id="b" overflow="visible"><path d="m0.20312-0.17188h-0.015625c0-0.007813-0.007812-0.015625-0.015625-0.015625-0.023437 0-0.039063 0.011719-0.046875 0.03125-0.011719 0.011719-0.015625 0.027344-0.015625 0.046875v0.10938h-0.078125v-0.23438h0.078125v0.046875c0.007813-0.019531 0.019531-0.035156 0.03125-0.046875 0.007813-0.007813 0.023437-0.015625 0.046875-0.015625h0.015625z" fill="#225998" class="color000 svgShape"></path></symbol><symbol id="k" overflow="visible"><path d="m0.23438-0.23438v0.0625h-0.046875c0-0.007813-0.011719-0.015625-0.03125-0.015625-0.011719 0-0.027344 0.011719-0.046875 0.03125-0.011719 0.011719-0.015625 0.027344-0.015625 0.046875 0 0.011719 0.0039062 0.027344 0.015625 0.046875 0.019531 0.011719 0.035156 0.015625 0.046875 0.015625h0.046875c0.007813-0.0078125 0.019531-0.015625 0.03125-0.015625v0.0625h-0.046875-0.03125c-0.042969 0-0.078125-0.0078125-0.10938-0.03125-0.023438-0.019531-0.03125-0.046875-0.03125-0.078125 0-0.039063 0.0078125-0.070313 0.03125-0.09375 0.03125-0.03125 0.066406-0.046875 0.10938-0.046875 0.007812 0 0.019531 0.007812 0.03125 0.015625h0.046875z" fill="#225998" class="color000 svgShape"></path></symbol><symbol id="c" overflow="visible"><path d="m0.26562-0.125v0.03125h-0.17188c0 0.023438 0.0039062 0.039062 0.015625 0.046875h0.046875 0.046875c0.019531-0.0078125 0.039063-0.019531 0.0625-0.03125v0.0625c-0.023437 0.011719-0.042969 0.015625-0.0625 0.015625h-0.046875c-0.042969 0-0.078125-0.0078125-0.10938-0.03125-0.023438-0.019531-0.03125-0.046875-0.03125-0.078125 0-0.039063 0.0078125-0.070313 0.03125-0.09375 0.03125-0.03125 0.0625-0.046875 0.09375-0.046875 0.039063 0 0.070313 0.015625 0.09375 0.046875 0.019531 0.023437 0.03125 0.046875 0.03125 0.078125zm-0.078125-0.015625c0-0.019531-0.007812-0.03125-0.015625-0.03125 0-0.007813-0.011719-0.015625-0.03125-0.015625-0.011719 0-0.023437 0.007812-0.03125 0.015625-0.011719 0-0.015625 0.011719-0.015625 0.03125z" fill="#225998" class="color000 svgShape"></path></symbol><symbol id="d" overflow="visible"><path d="m0.14062-0.10938c-0.011719 0-0.023437 0.007813-0.03125 0.015625-0.011719 0-0.015625 0.0078125-0.015625 0.015625v0.03125h0.03125c0.019531 0 0.035156-0.0039062 0.046875-0.015625 0.007813-0.0078125 0.015625-0.019531 0.015625-0.03125v-0.015625zm0.10938-0.03125v0.14062h-0.0625v-0.03125c-0.011719 0.011719-0.027344 0.023438-0.046875 0.03125h-0.046875c-0.023438 0-0.042969-0.0039062-0.0625-0.015625-0.011719-0.0078125-0.015625-0.03125-0.015625-0.0625 0-0.019531 0.0078125-0.035156 0.03125-0.046875 0.019531-0.007812 0.050781-0.015625 0.09375-0.015625h0.046875v-0.015625c0-0.007812-0.007812-0.015625-0.015625-0.015625-0.011719-0.007813-0.027344-0.015625-0.046875-0.015625h-0.0625c-0.011719 0-0.015625 0.007812-0.015625 0.015625v-0.0625h0.03125c0.019531-0.007813 0.039063-0.015625 0.0625-0.015625 0.039063 0 0.066406 0.011719 0.078125 0.03125 0.019531 0.023438 0.03125 0.046875 0.03125 0.078125z" fill="#225998" class="color000 svgShape"></path></symbol><symbol id="e" overflow="visible"><path d="m0.125-0.29688v0.0625h0.0625v0.046875h-0.0625v0.10938 0.03125h0.015625 0.046875v0.046875h-0.0625c-0.03125 0-0.054688-0.0039062-0.0625-0.015625-0.011719-0.019531-0.015625-0.039062-0.015625-0.0625v-0.10938h-0.046875v-0.046875h0.046875v-0.0625z" fill="#225998" class="color000 svgShape"></path></symbol><symbol id="f" overflow="visible"><path d="m0.1875-0.20312v-0.125h0.078125v0.32812h-0.078125v-0.03125c0 0.011719-0.011719 0.023438-0.03125 0.03125h-0.03125c-0.03125 0-0.058594-0.0078125-0.078125-0.03125-0.023438-0.019531-0.03125-0.046875-0.03125-0.078125 0-0.039063 0.0078125-0.070313 0.03125-0.09375 0.019531-0.03125 0.046875-0.046875 0.078125-0.046875 0.007812 0 0.019531 0.007812 0.03125 0.015625 0.019531 0.011719 0.03125 0.023437 0.03125 0.03125zm-0.046875 0.15625c0.019531 0 0.03125-0.0039062 0.03125-0.015625 0.007813-0.0078125 0.015625-0.023438 0.015625-0.046875 0-0.019531-0.007812-0.035156-0.015625-0.046875 0-0.019531-0.011719-0.03125-0.03125-0.03125-0.011719 0-0.023437 0.011719-0.03125 0.03125-0.011719 0.011719-0.015625 0.027344-0.015625 0.046875 0 0.023438 0.0039062 0.039062 0.015625 0.046875 0.007813 0.011719 0.019531 0.015625 0.03125 0.015625z" fill="#225998" class="color000 svgShape"></path></symbol><symbol id="g" overflow="visible"><path d="m0.15625-0.046875c0.019531 0 0.03125-0.0039062 0.03125-0.015625 0.007812-0.0078125 0.015625-0.023438 0.015625-0.046875 0-0.019531-0.007813-0.035156-0.015625-0.046875 0-0.019531-0.011719-0.03125-0.03125-0.03125-0.011719 0-0.023438 0.011719-0.03125 0.03125-0.011719 0.011719-0.015625 0.027344-0.015625 0.046875 0 0.011719 0.003906 0.027344 0.015625 0.046875 0.007812 0.011719 0.019531 0.015625 0.03125 0.015625zm-0.046875-0.15625 0.03125-0.03125c0.019531-0.007813 0.035156-0.015625 0.046875-0.015625 0.03125 0 0.054688 0.015625 0.078125 0.046875 0.019531 0.023437 0.03125 0.054687 0.03125 0.09375 0 0.03125-0.011719 0.058594-0.03125 0.078125-0.023437 0.023438-0.046875 0.03125-0.078125 0.03125h-0.046875c-0.011719-0.0078125-0.023437-0.019531-0.03125-0.03125v0.03125h-0.078125v-0.32812h0.078125z" fill="#225998" class="color000 svgShape"></path></symbol><symbol id="h" overflow="visible"><path d="m0-0.23438h0.078125l0.0625 0.15625 0.046875-0.15625h0.09375l-0.10938 0.25c-0.011719 0.03125-0.023437 0.050781-0.03125 0.0625-0.011719 0.0078125-0.027344 0.015625-0.046875 0.015625h-0.046875v-0.046875h0.015625c0.019531 0 0.03125-0.0078125 0.03125-0.015625 0 0 0.0039062-0.0078125 0.015625-0.015625v-0.015625z" fill="#225998" class="color000 svgShape"></path></symbol><symbol id="i" overflow="visible"><path d="m0.10938-0.03125v0.125h-0.078125v-0.32812h0.078125v0.03125l0.03125-0.03125c0.019531-0.007813 0.035156-0.015625 0.046875-0.015625 0.03125 0 0.054688 0.015625 0.078125 0.046875 0.019531 0.023437 0.03125 0.054687 0.03125 0.09375 0 0.03125-0.011719 0.058594-0.03125 0.078125-0.023437 0.023438-0.046875 0.03125-0.078125 0.03125h-0.046875c-0.011719-0.0078125-0.023437-0.019531-0.03125-0.03125zm0.046875-0.15625c-0.011719 0-0.023438 0.011719-0.03125 0.03125-0.011719 0.011719-0.015625 0.027344-0.015625 0.046875 0 0.011719 0.003906 0.027344 0.015625 0.046875 0.007812 0.011719 0.019531 0.015625 0.03125 0.015625 0.019531 0 0.03125-0.0039062 0.03125-0.015625 0.007812-0.0078125 0.015625-0.023438 0.015625-0.046875 0-0.019531-0.007813-0.035156-0.015625-0.046875 0-0.019531-0.011719-0.03125-0.03125-0.03125z" fill="#225998" class="color000 svgShape"></path></symbol><symbol id="j" overflow="visible"><path d="m0.14062-0.1875c-0.011719 0-0.023437 0.007812-0.03125 0.015625-0.011719 0.011719-0.015625 0.03125-0.015625 0.0625 0 0.023438 0.0039062 0.039062 0.015625 0.046875 0.007813 0.011719 0.019531 0.015625 0.03125 0.015625 0.019531 0 0.035156-0.0039062 0.046875-0.015625 0.007812-0.0078125 0.015625-0.023438 0.015625-0.046875 0-0.03125-0.007813-0.050781-0.015625-0.0625-0.011719-0.007813-0.027344-0.015625-0.046875-0.015625zm0-0.0625c0.039063 0 0.070313 0.015625 0.09375 0.046875 0.03125 0.023437 0.046875 0.054687 0.046875 0.09375 0 0.03125-0.015625 0.058594-0.046875 0.078125-0.023437 0.023438-0.054687 0.03125-0.09375 0.03125-0.03125 0-0.0625-0.0078125-0.09375-0.03125-0.023438-0.019531-0.03125-0.046875-0.03125-0.078125 0-0.039063 0.0078125-0.070313 0.03125-0.09375 0.03125-0.03125 0.0625-0.046875 0.09375-0.046875z" fill="#225998" class="color000 svgShape"></path></symbol><symbol id="a" overflow="visible"><path d="m0.29688-0.015625c-0.023437 0.011719-0.042969 0.015625-0.0625 0.015625h-0.046875c-0.054688 0-0.09375-0.0078125-0.125-0.03125-0.03125-0.03125-0.046875-0.070312-0.046875-0.125 0-0.050781 0.015625-0.09375 0.046875-0.125s0.070312-0.046875 0.125-0.046875c0.019531 0 0.035156 0.007813 0.046875 0.015625 0.019531 0 0.039063 0.007812 0.0625 0.015625v0.0625c-0.023437-0.007813-0.042969-0.015625-0.0625-0.015625-0.011719-0.007812-0.027344-0.015625-0.046875-0.015625-0.023438 0-0.042969 0.011719-0.0625 0.03125-0.011719 0.023437-0.015625 0.046875-0.015625 0.078125s0.003906 0.058594 0.015625 0.078125c0.019531 0.023438 0.039062 0.03125 0.0625 0.03125h0.046875c0.019531-0.0078125 0.039063-0.019531 0.0625-0.03125z" fill="#225998" class="color000 svgShape"></path></symbol><symbol id="l" overflow="visible"><path d="m0.28125-0.14062v0.14062h-0.09375v-0.10938-0.03125-0.03125h-0.015625c0-0.007813-0.007813-0.015625-0.015625-0.015625-0.011719 0-0.023438 0.011719-0.03125 0.03125-0.011719 0.011719-0.015625 0.027344-0.015625 0.046875v0.10938h-0.078125v-0.23438h0.078125v0.03125l0.03125-0.03125c0.019531-0.007813 0.035156-0.015625 0.046875-0.015625 0.03125 0 0.050781 0.011719 0.0625 0.03125 0.019531 0.023438 0.03125 0.046875 0.03125 0.078125z" fill="#225998" class="color000 svgShape"></path></symbol><symbol id="m" overflow="visible"><path d="m0.21875-0.23438v0.0625c-0.023438-0.007813-0.042969-0.015625-0.0625-0.015625h-0.03125-0.03125v0.015625 0.03125h0.03125 0.015625c0.03125 0 0.050781 0.007813 0.0625 0.015625 0.019531 0.011719 0.03125 0.03125 0.03125 0.0625 0 0.023438-0.011719 0.039062-0.03125 0.046875-0.011719 0.011719-0.039063 0.015625-0.078125 0.015625h-0.0625-0.03125v-0.0625c0.0078125 0.011719 0.019531 0.015625 0.03125 0.015625h0.0625 0.015625c0.007813 0 0.015625-0.0039062 0.015625-0.015625 0-0.0078125-0.007812-0.015625-0.015625-0.015625 0-0.0078125-0.007813-0.015625-0.015625-0.015625h-0.015625c-0.03125 0-0.058594-0.0039062-0.078125-0.015625-0.011719-0.019531-0.015625-0.039063-0.015625-0.0625 0-0.019531 0.0078125-0.035156 0.03125-0.046875 0.019531-0.019531 0.046875-0.03125 0.078125-0.03125 0.007812 0 0.019531 0.007812 0.03125 0.015625h0.0625z" fill="#225998" class="color000 svgShape"></path></symbol><symbol id="n" overflow="visible"><path d="m0.1875-0.32812v0.046875h-0.046875s-0.007813 0.007812-0.015625 0.015625v0.015625 0.015625h0.0625v0.046875h-0.0625v0.1875h-0.078125v-0.1875h-0.046875v-0.046875h0.046875v-0.015625c0-0.03125 0.0039062-0.050781 0.015625-0.0625 0.019531-0.007812 0.046875-0.015625 0.078125-0.015625z" fill="#225998" class="color000 svgShape"></path></symbol><symbol id="o" overflow="visible"><path d="m0.25-0.1875c0.007812-0.019531 0.019531-0.035156 0.03125-0.046875 0.019531-0.007813 0.035156-0.015625 0.046875-0.015625 0.03125 0 0.050781 0.011719 0.0625 0.03125 0.019531 0.023438 0.03125 0.046875 0.03125 0.078125v0.14062h-0.078125v-0.125-0.015625c0-0.007813-0.007812-0.019531-0.015625-0.03125 0-0.007813-0.007813-0.015625-0.015625-0.015625-0.011719 0-0.023438 0.011719-0.03125 0.03125-0.011719 0.011719-0.015625 0.027344-0.015625 0.046875v0.10938h-0.078125v-0.125c0-0.019531-0.007812-0.035156-0.015625-0.046875 0-0.007813-0.007813-0.015625-0.015625-0.015625-0.011719 0-0.023438 0.011719-0.03125 0.03125-0.011719 0.011719-0.015625 0.027344-0.015625 0.046875v0.10938h-0.078125v-0.23438h0.078125v0.03125l0.03125-0.03125c0.007813-0.007813 0.023437-0.015625 0.046875-0.015625 0.007812 0 0.019531 0.007812 0.03125 0.015625 0.019531 0.011719 0.03125 0.027344 0.03125 0.046875z" fill="#225998" class="color000 svgShape"></path></symbol><symbol id="p" overflow="visible"><path d="m0.28125-0.14062v0.14062h-0.09375v-0.10938-0.03125-0.03125h-0.015625c0-0.007813-0.007813-0.015625-0.015625-0.015625-0.011719 0-0.023438 0.011719-0.03125 0.03125-0.011719 0.011719-0.015625 0.027344-0.015625 0.046875v0.10938h-0.078125v-0.32812h0.078125v0.125l0.03125-0.03125c0.019531-0.007813 0.035156-0.015625 0.046875-0.015625 0.03125 0 0.050781 0.011719 0.0625 0.03125 0.019531 0.023438 0.03125 0.046875 0.03125 0.078125z" fill="#225998" class="color000 svgShape"></path></symbol><symbol id="q" overflow="visible"><path d="m0.046875-0.3125h0.078125l0.125 0.21875v-0.21875h0.078125v0.3125h-0.09375l-0.125-0.21875v0.21875h-0.0625z" fill="#225998" class="color000 svgShape"></path></symbol><symbol id="r" overflow="visible"><path d="m0.03125-0.09375v-0.14062h0.078125v0.015625 0.0625 0.03125 0.046875 0.015625c0.007813 0 0.015625 0.0078125 0.015625 0.015625h0.015625c0.019531 0 0.03125-0.0039062 0.03125-0.015625 0.007813-0.019531 0.015625-0.039062 0.015625-0.0625v-0.10938h0.078125v0.23438h-0.078125v-0.03125c-0.011719 0.011719-0.023438 0.023438-0.03125 0.03125h-0.046875c-0.023438 0-0.042969-0.0039062-0.0625-0.015625-0.011719-0.019531-0.015625-0.046875-0.015625-0.078125z" fill="#225998" class="color000 svgShape"></path></symbol><symbol id="s" overflow="visible"><path d="m0.046875-0.3125h0.125c0.039063 0 0.070313 0.011719 0.09375 0.03125 0.019531 0.011719 0.03125 0.039062 0.03125 0.078125 0 0.03125-0.011719 0.058594-0.03125 0.078125-0.023437 0.011719-0.054687 0.015625-0.09375 0.015625h-0.046875v0.10938h-0.078125zm0.078125 0.0625v0.078125h0.046875 0.03125c0.007813-0.007813 0.015625-0.019531 0.015625-0.03125 0-0.019531-0.007812-0.03125-0.015625-0.03125-0.011719-0.007813-0.023437-0.015625-0.03125-0.015625z" fill="#225998" class="color000 svgShape"></path></symbol><symbol id="t" overflow="visible"><path d="m0.03125-0.23438h0.078125v0.23438c0 0.03125-0.011719 0.050781-0.03125 0.0625-0.011719 0.019531-0.03125 0.03125-0.0625 0.03125h-0.03125v-0.046875h0.015625c0.0078125 0 0.015625-0.0078125 0.015625-0.015625 0.0078125 0 0.015625-0.011719 0.015625-0.03125zm0-0.09375h0.078125v0.0625h-0.078125z" fill="#225998" class="color000 svgShape"></path></symbol></defs><path d="m174.68 331.93c-0.38672-0.52734-0.77344-1.043-1.2578-1.5156l-16.879-16.629-31.73-31.773 77.488-77.918c6.918-7.5195 23.926-22.27 11.535-35.289-11.469-11.305-23.992-10.512-38.312 3.8008l-19.23 18.953h0.007813l-80.449 79.863c-6.0234 5.9688-6.0039 15.715 0.035156 21.668l18.844 18.574 0.007813-0.015625 48.859 48.168c0.75781 0.75 1.6094 1.3359 2.4883 1.8594l33.359 33.395c8.8398 11.863 23.59 15.965 32.781 9.1055 9.1914-6.8477 13.465-21.195 0.64453-34.012zm119 146.3c4.7031-1.8086 8.0117-5.6523 9.4609-10.133l40.691 0.47266c13.199 0.14453 21.855 3.9648 21.746 13.629l-0.058594 5.0664c-0.070312 6.3594-8.6602 13.656-17.516 13.551l-58.137-0.66406c-8.8555-0.10156-16.016-7.4336-15.914-16.281 0.035156-3.3516 1.1133-6.4531 2.9102-9.0195 4.375 4.1172 10.863 5.6758 16.816 3.3789zm103.82-410.2 13.172 3.9648c2.7148 0.82031 4.2734 3.7148 3.4531 6.4375l-5.8242 19.359-23.062-6.9336 5.8242-19.367c0.82031-2.7227 3.7148-4.2734 6.4375-3.4531zm18.43 60.238 6.5547 1.9727c2.6953 0.65625 16.266 4.8438 11.047 22.203l-21.332 70.922c-0.73047 2.4297-3.293 3.8086-5.7188 3.0742-2.4297-0.73047-3.8086-3.293-3.0742-5.7188l21.332-70.922c2.5664-8.5391-3.1719-10.348-4.2148-10.605-0.21484-0.035156-0.42969-0.085938-0.64453-0.14453l-6.5898-1.9805-21.746 72.309c-1.457 4.8438-6.6094 7.5977-11.441 6.1523l-36.289-10.914c-4.832-1.457-7.5977-6.6094-6.1445-11.441l25.312-84.172c2.9102-9.6484 13.172-15.172 22.832-12.27l18.773 5.6523c9.6562 2.9023 15.18 13.164 12.277 22.82l-0.92969 3.0664zm-75.617 87.98 36.289 10.914c4.8438 1.457 7.5977 6.5977 6.1445 11.441l-48.781 162.19-24.234 35.746c-1.1641 1.7227-2.8008 2.9453-4.625 3.5664-2.9023 0.99219-4.9609 3.1172-5.8398 6.0469l-2.7383 9.1055c-5.1445 17.094-19.668 12.727-14.527-4.375l2.5938-8.6055c0.92969-3.0859 0.26562-6.1758-1.8281-8.625-1.3711-1.5859-2.1641-3.6367-2.1875-5.8828l-0.49219-43.18 48.789-162.19c1.457-4.8438 6.5977-7.6055 11.441-6.1523zm174.6 115.69c0.38672-0.52734 0.78516-1.043 1.2578-1.5156l16.879-16.629 31.73-31.773-77.488-77.918c-6.918-7.5195-23.926-22.27-11.535-35.289 11.457-11.305 24.004-10.512 38.312 3.8008l19.223 18.953 83.492 82.879c4.3516 4.3164 4.332 11.348-0.027344 15.645l-21.891 21.582-0.007813-0.015625-48.867 48.168c-0.75 0.75-1.6016 1.3359-2.4805 1.8594l-33.359 33.395c-8.8398 11.863-23.59 15.965-32.781 9.1055-9.1914-6.8477-13.465-21.195-0.64453-34.012l38.191-38.234z" fill="#225998" class="color000 svgShape"></path><use x="70" y="561.293" xlink:href="#a"></use><use x="70.316" y="561.293" xlink:href="#b"></use><use x="70.527" y="561.293" xlink:href="#c"></use><use x="70.82" y="561.293" xlink:href="#d"></use><use x="71.113" y="561.293" xlink:href="#e"></use><use x="71.316" y="561.293" xlink:href="#c"></use><use x="71.609" y="561.293" xlink:href="#f"></use><use x="72.066" y="561.293" xlink:href="#g"></use><use x="72.375" y="561.293" xlink:href="#h"></use><use x="72.809" y="561.293" xlink:href="#i"></use><use x="73.117" y="561.293" xlink:href="#j"></use><use x="73.41" y="561.293" xlink:href="#i"></use><use x="73.719" y="561.293" xlink:href="#k"></use><use x="73.977" y="561.293" xlink:href="#j"></use><use x="74.27" y="561.293" xlink:href="#b"></use><use x="74.484" y="561.293" xlink:href="#l"></use><use x="74.789" y="561.293" xlink:href="#d"></use><use x="75.082" y="561.293" xlink:href="#b"></use><use x="75.293" y="561.293" xlink:href="#e"></use><use x="75.5" y="561.293" xlink:href="#m"></use><use x="70" y="561.723" xlink:href="#n"></use><use x="70.188" y="561.723" xlink:href="#b"></use><use x="70.398" y="561.723" xlink:href="#j"></use><use x="70.695" y="561.723" xlink:href="#o"></use><use x="71.293" y="561.723" xlink:href="#e"></use><use x="71.5" y="561.723" xlink:href="#p"></use><use x="71.809" y="561.723" xlink:href="#c"></use><use x="72.25" y="561.723" xlink:href="#q"></use><use x="72.609" y="561.723" xlink:href="#j"></use><use x="72.906" y="561.723" xlink:href="#r"></use><use x="73.211" y="561.723" xlink:href="#l"></use><use x="73.668" y="561.723" xlink:href="#s"></use><use x="73.984" y="561.723" xlink:href="#b"></use><use x="74.195" y="561.723" xlink:href="#j"></use><use x="74.492" y="561.723" xlink:href="#t"></use><use x="74.641" y="561.723" xlink:href="#c"></use><use x="74.934" y="561.723" xlink:href="#k"></use><use x="75.188" y="561.723" xlink:href="#e"></use></svg></g></svg>