<?xml version="1.0" standalone="no"?>
<!DOCTYPE svg PUBLIC "-//W3C//DTD SVG 20010904//EN"
 "http://www.w3.org/TR/2001/REC-SVG-20010904/DTD/svg10.dtd">
<svg version="1.0" xmlns="http://www.w3.org/2000/svg"
 width="700.000000pt" height="700.000000pt" viewBox="0 0 700.000000 700.000000"
 preserveAspectRatio="xMidYMid meet">
<metadata>
Created by potrace 1.14, written by Peter Selinger 2001-2017
</metadata>
<g transform="translate(0.000000,700.000000) scale(0.100000,-0.100000)"
fill="#000000" stroke="none">
<path d="M3920 6300 c-6 -11 -24 -62 -40 -113 l-28 -92 111 -36 c62 -20 115
-34 118 -30 11 10 59 177 59 204 0 32 -12 41 -94 66 -86 26 -112 27 -126 1z"/>
<path d="M3723 6018 c-23 -13 -51 -35 -63 -50 -29 -37 -291 -907 -284 -945 6
-38 43 -66 112 -85 31 -9 119 -35 195 -58 144 -43 180 -45 210 -12 16 17 30
63 164 510 71 237 77 252 97 246 54 -15 91 -40 96 -64 6 -26 -29 -155 -160
-580 -65 -209 -65 -212 -39 -232 25 -21 30 -22 52 -5 15 11 181 540 235 750
26 101 -14 170 -119 205 -51 18 -54 21 -49 48 14 91 -11 161 -72 201 -45 30
-247 93 -298 93 -19 0 -54 -10 -77 -22z"/>
<path d="M1905 5378 c-64 -23 -133 -86 -602 -552 -510 -505 -563 -558 -577
-583 -13 -23 -14 -84 -3 -118 6 -18 90 -108 208 -225 675 -665 939 -923 959
-937 30 -21 109 -41 145 -36 98 12 175 103 175 208 0 78 -31 113 -505 588
l-457 457 405 408 c459 460 457 459 497 527 48 80 40 145 -25 208 -59 58 -149
80 -220 55z"/>
<path d="M4869 5381 c-99 -32 -167 -120 -153 -199 8 -42 50 -107 113 -175 32
-34 228 -233 435 -442 207 -209 376 -382 376 -385 0 -4 -205 -212 -455 -463
-484 -484 -497 -500 -497 -591 0 -57 22 -105 66 -148 60 -59 145 -69 229 -27
25 13 128 106 252 229 116 115 260 257 320 316 591 574 645 634 643 709 0 28
-1084 1102 -1153 1144 -55 34 -130 47 -176 32z"/>
<path d="M3333 4830 c-25 -10 -41 -37 -59 -100 -6 -25 -41 -142 -77 -260 -36
-118 -69 -231 -75 -250 -5 -19 -26 -87 -45 -150 -19 -63 -90 -295 -156 -515
l-120 -400 3 -227 c3 -216 4 -230 26 -272 l24 -44 -22 -80 c-28 -100 -28 -142
-2 -170 46 -50 104 -7 139 103 32 99 38 110 80 134 48 26 287 372 306 441 27
95 95 321 99 329 3 4 7 18 10 32 3 13 57 197 121 409 239 790 249 823 241 854
-11 43 -37 57 -188 103 -255 78 -263 80 -305 63z"/>
<path d="M3021 2297 c-10 -25 -45 -59 -78 -76 -34 -17 -104 -13 -140 8 -36 23
-49 15 -59 -37 -15 -76 32 -159 103 -183 25 -8 140 -12 363 -13 l326 -1 42 27
c60 40 76 70 76 139 -1 72 -21 104 -81 131 -42 18 -71 21 -295 24 -248 3 -249
3 -257 -19z"/>
</g>
</svg>
